<?xml version="1.0" encoding="UTF-8" standalone="no"?>
<!DOCTYPE svg PUBLIC "-//W3C//DTD SVG 1.1//EN"
 "http://www.w3.org/Graphics/SVG/1.1/DTD/svg11.dtd">
<!-- Generated by graphviz version 2.43.0 (0)
 -->
<!-- Title: debruijn Pages: 1 -->
<svg width="519pt" height="413pt"
 viewBox="0.00 0.00 519.45 413.00" xmlns="http://www.w3.org/2000/svg" xmlns:xlink="http://www.w3.org/1999/xlink">
<g id="graph0" class="graph" transform="scale(1 1) rotate(0) translate(4 409)">
<title>debruijn</title>
<polygon fill="white" stroke="transparent" points="-4,4 -4,-409 515.45,-409 515.45,4 -4,4"/>
<!-- TC7° -->
<g id="node1" class="node">
<title>TC7°</title>
<ellipse fill="none" stroke="black" cx="336.45" cy="-387" rx="33.6" ry="18"/>
<text text-anchor="middle" x="336.45" y="-383.3" font-family="Times,serif" font-size="14.00">TC7°</text>
</g>
<!-- CA6° -->
<g id="node2" class="node">
<title>CA6°</title>
<ellipse fill="none" stroke="black" cx="203.45" cy="-300" rx="34.39" ry="18"/>
<text text-anchor="middle" x="203.45" y="-296.3" font-family="Times,serif" font-size="14.00">CA6°</text>
</g>
<!-- TC7°&#45;&gt;CA6° -->
<g id="edge1" class="edge">
<title>TC7°&#45;&gt;CA6°</title>
<path fill="none" stroke="black" d="M303.27,-383.43C261.63,-379.43 193.79,-370.12 178.45,-351 172,-342.97 175.19,-333.01 181.14,-324.1"/>
<polygon fill="black" stroke="black" points="184.08,-326.01 187.46,-315.97 178.56,-321.71 184.08,-326.01"/>
<text text-anchor="middle" x="193.45" y="-339.8" font-family="Times,serif" font-size="14.00">TCA</text>
</g>
<!-- TC7°&#45;&gt;CA6° -->
<g id="edge3" class="edge">
<title>TC7°&#45;&gt;CA6°</title>
<path fill="none" stroke="black" d="M304.08,-381.51C281.64,-377.01 252.18,-368.15 231.45,-351 223.87,-344.73 217.97,-335.86 213.58,-327.32"/>
<polygon fill="black" stroke="black" points="216.64,-325.58 209.26,-317.97 210.28,-328.52 216.64,-325.58"/>
<text text-anchor="middle" x="246.45" y="-339.8" font-family="Times,serif" font-size="14.00">TCA</text>
</g>
<!-- TC7°&#45;&gt;CA6° -->
<g id="edge4" class="edge">
<title>TC7°&#45;&gt;CA6°</title>
<path fill="none" stroke="black" d="M316.13,-372.3C297.68,-359.9 271.82,-342.58 261.45,-336 252.58,-330.38 242.85,-324.42 233.93,-319.05"/>
<polygon fill="black" stroke="black" points="235.72,-316.04 225.35,-313.9 232.13,-322.04 235.72,-316.04"/>
<text text-anchor="middle" x="297.45" y="-339.8" font-family="Times,serif" font-size="14.00">TCA</text>
</g>
<!-- CT2° -->
<g id="node3" class="node">
<title>CT2°</title>
<ellipse fill="none" stroke="black" cx="322.45" cy="-246" rx="33.6" ry="18"/>
<text text-anchor="middle" x="322.45" y="-242.3" font-family="Times,serif" font-size="14.00">CT2°</text>
</g>
<!-- TC7°&#45;&gt;CT2° -->
<g id="edge2" class="edge">
<title>TC7°&#45;&gt;CT2°</title>
<path fill="none" stroke="black" d="M334.73,-368.96C332.35,-345.3 328.01,-302.26 325.18,-274.15"/>
<polygon fill="black" stroke="black" points="328.66,-273.78 324.18,-264.18 321.7,-274.48 328.66,-273.78"/>
<text text-anchor="middle" x="346.95" y="-339.8" font-family="Times,serif" font-size="14.00">TCT</text>
</g>
<!-- AT2° -->
<g id="node4" class="node">
<title>AT2°</title>
<ellipse fill="none" stroke="black" cx="253.45" cy="-192" rx="33.29" ry="18"/>
<text text-anchor="middle" x="253.45" y="-188.3" font-family="Times,serif" font-size="14.00">AT2°</text>
</g>
<!-- CA6°&#45;&gt;AT2° -->
<g id="edge5" class="edge">
<title>CA6°&#45;&gt;AT2°</title>
<path fill="none" stroke="black" d="M211.26,-282.44C219.28,-265.42 231.89,-238.7 241.23,-218.89"/>
<polygon fill="black" stroke="black" points="244.42,-220.33 245.52,-209.8 238.09,-217.35 244.42,-220.33"/>
<text text-anchor="middle" x="251.45" y="-242.3" font-family="Times,serif" font-size="14.00">CAT</text>
</g>
<!-- AG2° -->
<g id="node5" class="node">
<title>AG2°</title>
<ellipse fill="none" stroke="black" cx="34.45" cy="-192" rx="34.39" ry="18"/>
<text text-anchor="middle" x="34.45" y="-188.3" font-family="Times,serif" font-size="14.00">AG2°</text>
</g>
<!-- CA6°&#45;&gt;AG2° -->
<g id="edge6" class="edge">
<title>CA6°&#45;&gt;AG2°</title>
<path fill="none" stroke="black" d="M174.18,-290.39C156.21,-284.41 133.13,-275.46 114.45,-264 92.75,-250.69 71.34,-231.27 56.14,-216.1"/>
<polygon fill="black" stroke="black" points="58.3,-213.3 48.79,-208.62 53.3,-218.2 58.3,-213.3"/>
<text text-anchor="middle" x="130.45" y="-242.3" font-family="Times,serif" font-size="14.00">CAG</text>
</g>
<!-- AA3° -->
<g id="node6" class="node">
<title>AA3°</title>
<ellipse fill="none" stroke="black" cx="120.45" cy="-192" rx="33.6" ry="18"/>
<text text-anchor="middle" x="120.45" y="-188.3" font-family="Times,serif" font-size="14.00">AA3°</text>
</g>
<!-- CA6°&#45;&gt;AA3° -->
<g id="edge7" class="edge">
<title>CA6°&#45;&gt;AA3°</title>
<path fill="none" stroke="black" d="M190.84,-282.9C177.11,-265.37 155.01,-237.14 139.23,-216.99"/>
<polygon fill="black" stroke="black" points="141.82,-214.62 132.9,-208.9 136.31,-218.93 141.82,-214.62"/>
<text text-anchor="middle" x="189.95" y="-242.3" font-family="Times,serif" font-size="14.00">CAA</text>
</g>
<!-- TT4° -->
<g id="node7" class="node">
<title>TT4°</title>
<ellipse fill="none" stroke="black" cx="351.45" cy="-105" rx="33.6" ry="18"/>
<text text-anchor="middle" x="351.45" y="-101.3" font-family="Times,serif" font-size="14.00">TT4°</text>
</g>
<!-- CT2°&#45;&gt;TT4° -->
<g id="edge11" class="edge">
<title>CT2°&#45;&gt;TT4°</title>
<path fill="none" stroke="black" d="M325.68,-228.05C328.45,-213.65 332.59,-192.45 336.45,-174 339.29,-160.41 342.6,-145.33 345.38,-132.83"/>
<polygon fill="black" stroke="black" points="348.81,-133.55 347.58,-123.02 341.98,-132.02 348.81,-133.55"/>
<text text-anchor="middle" x="351.95" y="-188.3" font-family="Times,serif" font-size="14.00">CTT</text>
</g>
<!-- AT2°&#45;&gt;TT4° -->
<g id="edge8" class="edge">
<title>AT2°&#45;&gt;TT4°</title>
<path fill="none" stroke="black" d="M259.13,-173.99C263.37,-163.42 270.05,-150.14 279.45,-141 289.03,-131.67 301.59,-124.41 313.53,-118.97"/>
<polygon fill="black" stroke="black" points="315.06,-122.13 322.91,-115.01 312.33,-115.68 315.06,-122.13"/>
<text text-anchor="middle" x="293.95" y="-144.8" font-family="Times,serif" font-size="14.00">ATT</text>
</g>
<!-- GG2° -->
<g id="node8" class="node">
<title>GG2°</title>
<ellipse fill="none" stroke="black" cx="257.45" cy="-105" rx="36" ry="18"/>
<text text-anchor="middle" x="257.45" y="-101.3" font-family="Times,serif" font-size="14.00">GG2°</text>
</g>
<!-- AG2°&#45;&gt;GG2° -->
<g id="edge12" class="edge">
<title>AG2°&#45;&gt;GG2°</title>
<path fill="none" stroke="black" d="M61.26,-180.33C66.62,-178.22 72.21,-176.03 77.45,-174 126.58,-155.01 183.47,-133.62 219.93,-119.98"/>
<polygon fill="black" stroke="black" points="221.5,-123.13 229.64,-116.35 219.05,-116.57 221.5,-123.13"/>
<text text-anchor="middle" x="177.95" y="-144.8" font-family="Times,serif" font-size="14.00">AGG</text>
</g>
<!-- AA3°&#45;&gt;AA3° -->
<g id="edge15" class="edge">
<title>AA3°&#45;&gt;AA3°</title>
<path fill="none" stroke="black" d="M151.03,-199.85C162.64,-200.15 172.24,-197.54 172.24,-192 172.24,-188.19 167.71,-185.77 161.1,-184.72"/>
<polygon fill="black" stroke="black" points="161.21,-181.22 151.03,-184.15 160.82,-188.21 161.21,-181.22"/>
<text text-anchor="middle" x="187.24" y="-188.3" font-family="Times,serif" font-size="14.00">AAA</text>
</g>
<!-- TT4°&#45;&gt;TC7° -->
<g id="edge9" class="edge">
<title>TT4°&#45;&gt;TC7°</title>
<path fill="none" stroke="black" d="M356.56,-122.85C360.42,-136.5 365.39,-156.29 367.45,-174 376.52,-252.15 392.65,-277.18 365.45,-351 363.87,-355.28 361.53,-359.41 358.84,-363.25"/>
<polygon fill="black" stroke="black" points="356.08,-361.09 352.59,-371.1 361.56,-365.46 356.08,-361.09"/>
<text text-anchor="middle" x="394.95" y="-242.3" font-family="Times,serif" font-size="14.00">TTC</text>
</g>
<!-- TT4°&#45;&gt;TC7° -->
<g id="edge10" class="edge">
<title>TT4°&#45;&gt;TC7°</title>
<path fill="none" stroke="black" d="M364.07,-121.99C384.55,-149.85 421.86,-209.53 412.45,-264 405.46,-304.45 405.5,-317.74 381.45,-351 377.32,-356.71 372,-361.95 366.48,-366.55"/>
<polygon fill="black" stroke="black" points="364.16,-363.92 358.36,-372.79 368.42,-369.47 364.16,-363.92"/>
<text text-anchor="middle" x="428.95" y="-242.3" font-family="Times,serif" font-size="14.00">TTC</text>
</g>
<!-- GT2° -->
<g id="node9" class="node">
<title>GT2°</title>
<ellipse fill="none" stroke="black" cx="357.45" cy="-18" rx="34.39" ry="18"/>
<text text-anchor="middle" x="357.45" y="-14.3" font-family="Times,serif" font-size="14.00">GT2°</text>
</g>
<!-- GG2°&#45;&gt;GT2° -->
<g id="edge13" class="edge">
<title>GG2°&#45;&gt;GT2°</title>
<path fill="none" stroke="black" d="M274.87,-89.19C290.78,-75.66 314.5,-55.5 332.44,-40.26"/>
<polygon fill="black" stroke="black" points="334.88,-42.78 340.23,-33.64 330.34,-37.45 334.88,-42.78"/>
<text text-anchor="middle" x="328.45" y="-57.8" font-family="Times,serif" font-size="14.00">GGT</text>
</g>
<!-- GT2°&#45;&gt;TC7° -->
<g id="edge14" class="edge">
<title>GT2°&#45;&gt;TC7°</title>
<path fill="none" stroke="black" d="M388.49,-26.03C424.92,-36.33 480.45,-59.35 480.45,-104 480.45,-301 480.45,-301 480.45,-301 480.45,-348.7 421.11,-370.19 378.62,-379.46"/>
<polygon fill="black" stroke="black" points="377.87,-376.04 368.76,-381.46 379.26,-382.9 377.87,-376.04"/>
<text text-anchor="middle" x="495.95" y="-188.3" font-family="Times,serif" font-size="14.00">GTC</text>
</g>
</g>
</svg>
