<?xml version="1.0" encoding="UTF-8" standalone="no"?>
<!DOCTYPE svg PUBLIC "-//W3C//DTD SVG 1.1//EN"
 "http://www.w3.org/Graphics/SVG/1.1/DTD/svg11.dtd">
<!-- Generated by graphviz version 2.43.0 (0)
 -->
<!-- Title: debruijn Pages: 1 -->
<svg width="539pt" height="413pt"
 viewBox="0.00 0.00 538.70 413.00" xmlns="http://www.w3.org/2000/svg" xmlns:xlink="http://www.w3.org/1999/xlink">
<g id="graph0" class="graph" transform="scale(1 1) rotate(0) translate(4 409)">
<title>debruijn</title>
<polygon fill="white" stroke="transparent" points="-4,4 -4,-409 534.7,-409 534.7,4 -4,4"/>
<!-- TC -->
<g id="node1" class="node">
<title>TC</title>
<ellipse fill="none" stroke="black" cx="355.7" cy="-387" rx="39.79" ry="18"/>
<text text-anchor="middle" x="355.7" y="-383.3" font-family="Times,serif" font-size="14.00">TC °&#45;1</text>
</g>
<!-- CA -->
<g id="node2" class="node">
<title>CA</title>
<ellipse fill="none" stroke="black" cx="222.7" cy="-300" rx="37.09" ry="18"/>
<text text-anchor="middle" x="222.7" y="-296.3" font-family="Times,serif" font-size="14.00">CA °0</text>
</g>
<!-- TC&#45;&gt;CA -->
<g id="edge1" class="edge">
<title>TC&#45;&gt;CA</title>
<path fill="none" stroke="black" d="M317.01,-382.88C275.14,-378.61 212.38,-369.29 197.7,-351 191.34,-343.09 194.35,-333.29 200.14,-324.48"/>
<polygon fill="black" stroke="black" points="203.01,-326.48 206.31,-316.42 197.45,-322.23 203.01,-326.48"/>
<text text-anchor="middle" x="212.7" y="-339.8" font-family="Times,serif" font-size="14.00">TCA</text>
</g>
<!-- TC&#45;&gt;CA -->
<g id="edge3" class="edge">
<title>TC&#45;&gt;CA</title>
<path fill="none" stroke="black" d="M318.42,-380.48C296.72,-375.7 269.95,-366.92 250.7,-351 243.12,-344.73 237.22,-335.86 232.83,-327.32"/>
<polygon fill="black" stroke="black" points="235.89,-325.58 228.51,-317.97 229.53,-328.52 235.89,-325.58"/>
<text text-anchor="middle" x="265.7" y="-339.8" font-family="Times,serif" font-size="14.00">TCA</text>
</g>
<!-- TC&#45;&gt;CA -->
<g id="edge4" class="edge">
<title>TC&#45;&gt;CA</title>
<path fill="none" stroke="black" d="M334.31,-371.59C315.94,-359.24 290.87,-342.46 280.7,-336 272.15,-330.57 262.79,-324.84 254.13,-319.62"/>
<polygon fill="black" stroke="black" points="255.8,-316.54 245.43,-314.4 252.2,-322.54 255.8,-316.54"/>
<text text-anchor="middle" x="316.7" y="-339.8" font-family="Times,serif" font-size="14.00">TCA</text>
</g>
<!-- CT -->
<g id="node5" class="node">
<title>CT</title>
<ellipse fill="none" stroke="black" cx="340.7" cy="-246" rx="36.29" ry="18"/>
<text text-anchor="middle" x="340.7" y="-242.3" font-family="Times,serif" font-size="14.00">CT °0</text>
</g>
<!-- TC&#45;&gt;CT -->
<g id="edge2" class="edge">
<title>TC&#45;&gt;CT</title>
<path fill="none" stroke="black" d="M353.86,-368.96C351.3,-345.3 346.66,-302.26 343.63,-274.15"/>
<polygon fill="black" stroke="black" points="347.1,-273.75 342.55,-264.18 340.14,-274.5 347.1,-273.75"/>
<text text-anchor="middle" x="366.2" y="-339.8" font-family="Times,serif" font-size="14.00">TCT</text>
</g>
<!-- AT -->
<g id="node3" class="node">
<title>AT</title>
<ellipse fill="none" stroke="black" cx="268.7" cy="-192" rx="36.29" ry="18"/>
<text text-anchor="middle" x="268.7" y="-188.3" font-family="Times,serif" font-size="14.00">AT °0</text>
</g>
<!-- CA&#45;&gt;AT -->
<g id="edge5" class="edge">
<title>CA&#45;&gt;AT</title>
<path fill="none" stroke="black" d="M230.09,-281.97C237.43,-265.05 248.79,-238.86 257.29,-219.28"/>
<polygon fill="black" stroke="black" points="260.55,-220.56 261.32,-209.99 254.13,-217.77 260.55,-220.56"/>
<text text-anchor="middle" x="267.7" y="-242.3" font-family="Times,serif" font-size="14.00">CAT</text>
</g>
<!-- AG -->
<g id="node6" class="node">
<title>AG</title>
<ellipse fill="none" stroke="black" cx="37.7" cy="-192" rx="37.89" ry="18"/>
<text text-anchor="middle" x="37.7" y="-188.3" font-family="Times,serif" font-size="14.00">AG °0</text>
</g>
<!-- CA&#45;&gt;AG -->
<g id="edge6" class="edge">
<title>CA&#45;&gt;AG</title>
<path fill="none" stroke="black" d="M191.32,-290.39C172,-284.41 147.12,-275.46 126.7,-264 102.7,-250.53 78.48,-230.71 61.38,-215.44"/>
<polygon fill="black" stroke="black" points="63.34,-212.49 53.59,-208.35 58.63,-217.67 63.34,-212.49"/>
<text text-anchor="middle" x="142.7" y="-242.3" font-family="Times,serif" font-size="14.00">CAG</text>
</g>
<!-- AA -->
<g id="node9" class="node">
<title>AA</title>
<ellipse fill="none" stroke="black" cx="129.7" cy="-192" rx="36.29" ry="18"/>
<text text-anchor="middle" x="129.7" y="-188.3" font-family="Times,serif" font-size="14.00">AA °1</text>
</g>
<!-- CA&#45;&gt;AA -->
<g id="edge7" class="edge">
<title>CA&#45;&gt;AA</title>
<path fill="none" stroke="black" d="M208.57,-282.9C193.05,-265.21 167.98,-236.63 150.27,-216.45"/>
<polygon fill="black" stroke="black" points="152.88,-214.11 143.65,-208.9 147.61,-218.73 152.88,-214.11"/>
<text text-anchor="middle" x="206.2" y="-242.3" font-family="Times,serif" font-size="14.00">CAA</text>
</g>
<!-- TT -->
<g id="node4" class="node">
<title>TT</title>
<ellipse fill="none" stroke="black" cx="369.7" cy="-105" rx="36.29" ry="18"/>
<text text-anchor="middle" x="369.7" y="-101.3" font-family="Times,serif" font-size="14.00">TT °0</text>
</g>
<!-- AT&#45;&gt;TT -->
<g id="edge8" class="edge">
<title>AT&#45;&gt;TT</title>
<path fill="none" stroke="black" d="M275.47,-173.99C280.36,-163.42 287.85,-150.15 297.7,-141 307.16,-132.2 319.25,-125.18 330.8,-119.8"/>
<polygon fill="black" stroke="black" points="332.54,-122.86 340.31,-115.67 329.75,-116.44 332.54,-122.86"/>
<text text-anchor="middle" x="312.2" y="-144.8" font-family="Times,serif" font-size="14.00">ATT</text>
</g>
<!-- TT&#45;&gt;TC -->
<g id="edge9" class="edge">
<title>TT&#45;&gt;TC</title>
<path fill="none" stroke="black" d="M374.81,-122.85C378.67,-136.5 383.64,-156.29 385.7,-174 394.77,-252.14 411.64,-277.09 384.7,-351 383.24,-355 381.1,-358.88 378.64,-362.49"/>
<polygon fill="black" stroke="black" points="375.86,-360.37 372.48,-370.42 381.38,-364.67 375.86,-360.37"/>
<text text-anchor="middle" x="413.2" y="-242.3" font-family="Times,serif" font-size="14.00">TTC</text>
</g>
<!-- TT&#45;&gt;TC -->
<g id="edge10" class="edge">
<title>TT&#45;&gt;TC</title>
<path fill="none" stroke="black" d="M382.49,-121.97C403.27,-149.79 441.13,-209.41 431.7,-264 424.71,-304.45 424.75,-317.74 400.7,-351 396.81,-356.37 391.89,-361.32 386.72,-365.71"/>
<polygon fill="black" stroke="black" points="384.25,-363.2 378.54,-372.12 388.57,-368.71 384.25,-363.2"/>
<text text-anchor="middle" x="448.2" y="-242.3" font-family="Times,serif" font-size="14.00">TTC</text>
</g>
<!-- CT&#45;&gt;TT -->
<g id="edge11" class="edge">
<title>CT&#45;&gt;TT</title>
<path fill="none" stroke="black" d="M343.93,-228.05C346.7,-213.65 350.84,-192.45 354.7,-174 357.54,-160.41 360.85,-145.33 363.63,-132.83"/>
<polygon fill="black" stroke="black" points="367.06,-133.55 365.83,-123.02 360.23,-132.02 367.06,-133.55"/>
<text text-anchor="middle" x="370.2" y="-188.3" font-family="Times,serif" font-size="14.00">CTT</text>
</g>
<!-- GG -->
<g id="node7" class="node">
<title>GG</title>
<ellipse fill="none" stroke="black" cx="273.7" cy="-105" rx="38.19" ry="18"/>
<text text-anchor="middle" x="273.7" y="-101.3" font-family="Times,serif" font-size="14.00">GG °0</text>
</g>
<!-- AG&#45;&gt;GG -->
<g id="edge12" class="edge">
<title>AG&#45;&gt;GG</title>
<path fill="none" stroke="black" d="M66.78,-180.47C72.71,-178.33 78.9,-176.09 84.7,-174 136.49,-155.32 196.29,-133.81 234.52,-120.07"/>
<polygon fill="black" stroke="black" points="236,-123.26 244.23,-116.59 233.63,-116.67 236,-123.26"/>
<text text-anchor="middle" x="189.2" y="-144.8" font-family="Times,serif" font-size="14.00">AGG</text>
</g>
<!-- GT -->
<g id="node8" class="node">
<title>GT</title>
<ellipse fill="none" stroke="black" cx="373.7" cy="-18" rx="37.09" ry="18"/>
<text text-anchor="middle" x="373.7" y="-14.3" font-family="Times,serif" font-size="14.00">GT °0</text>
</g>
<!-- GG&#45;&gt;GT -->
<g id="edge13" class="edge">
<title>GG&#45;&gt;GT</title>
<path fill="none" stroke="black" d="M291.57,-88.8C307.36,-75.39 330.55,-55.67 348.27,-40.62"/>
<polygon fill="black" stroke="black" points="350.62,-43.21 355.97,-34.06 346.09,-37.87 350.62,-43.21"/>
<text text-anchor="middle" x="344.7" y="-57.8" font-family="Times,serif" font-size="14.00">GGT</text>
</g>
<!-- GT&#45;&gt;TC -->
<g id="edge14" class="edge">
<title>GT&#45;&gt;TC</title>
<path fill="none" stroke="black" d="M406.8,-26.15C444.13,-36.38 499.7,-59.14 499.7,-104 499.7,-301 499.7,-301 499.7,-301 499.7,-346.96 444.63,-368.58 402.6,-378.39"/>
<polygon fill="black" stroke="black" points="401.81,-374.98 392.78,-380.53 403.3,-381.82 401.81,-374.98"/>
<text text-anchor="middle" x="515.2" y="-188.3" font-family="Times,serif" font-size="14.00">GTC</text>
</g>
<!-- AA&#45;&gt;AA -->
<g id="edge15" class="edge">
<title>AA&#45;&gt;AA</title>
<path fill="none" stroke="black" d="M162.63,-199.87C174.45,-200.04 184.09,-197.41 184.09,-192 184.09,-188.28 179.54,-185.88 172.85,-184.79"/>
<polygon fill="black" stroke="black" points="172.83,-181.28 162.63,-184.13 172.38,-188.27 172.83,-181.28"/>
<text text-anchor="middle" x="199.09" y="-188.3" font-family="Times,serif" font-size="14.00">AAA</text>
</g>
</g>
</svg>
