<?xml version="1.0" encoding="UTF-8" standalone="no"?>
<!DOCTYPE svg PUBLIC "-//W3C//DTD SVG 1.1//EN"
 "http://www.w3.org/Graphics/SVG/1.1/DTD/svg11.dtd">
<!-- Generated by graphviz version 2.43.0 (0)
 -->
<!-- Title: eulerianPath Pages: 1 -->
<svg width="850pt" height="413pt"
 viewBox="0.00 0.00 850.00 413.00" xmlns="http://www.w3.org/2000/svg" xmlns:xlink="http://www.w3.org/1999/xlink">
<g id="graph0" class="graph" transform="scale(1 1) rotate(0) translate(4 409)">
<title>eulerianPath</title>
<polygon fill="white" stroke="transparent" points="-4,4 -4,-409 846,-409 846,4 -4,4"/>
<!-- TC -->
<g id="node1" class="node">
<title>TC</title>
<ellipse fill="none" stroke="black" cx="400" cy="-387" rx="27" ry="18"/>
<text text-anchor="middle" x="400" y="-383.3" font-family="Times,serif" font-size="14.00">TC</text>
</g>
<!-- CA -->
<g id="node2" class="node">
<title>CA</title>
<ellipse fill="none" stroke="black" cx="152" cy="-300" rx="27" ry="18"/>
<text text-anchor="middle" x="152" y="-296.3" font-family="Times,serif" font-size="14.00">CA</text>
</g>
<!-- TC&#45;&gt;CA -->
<g id="edge1" class="edge">
<title>TC&#45;&gt;CA</title>
<path fill="none" stroke="black" d="M372.96,-385.41C293.23,-383.4 63.22,-375.49 41,-351 16.71,-324.23 74.4,-310.91 115.39,-305.02"/>
<polygon fill="black" stroke="black" points="115.94,-308.48 125.39,-303.68 115.01,-301.54 115.94,-308.48"/>
<text text-anchor="middle" x="88" y="-339.8" font-family="Times,serif" font-size="14.00">TCA step n°0</text>
</g>
<!-- TC&#45;&gt;CA -->
<g id="edge5" class="edge">
<title>TC&#45;&gt;CA</title>
<path fill="none" stroke="black" d="M372.88,-386.06C316.07,-385.56 187.36,-381.07 158,-351 152.16,-345.02 149.85,-336.53 149.24,-328.24"/>
<polygon fill="black" stroke="black" points="152.74,-328.05 149.24,-318.05 145.74,-328.05 152.74,-328.05"/>
<text text-anchor="middle" x="205" y="-339.8" font-family="Times,serif" font-size="14.00">TCA step n°4</text>
</g>
<!-- TC&#45;&gt;CA -->
<g id="edge13" class="edge">
<title>TC&#45;&gt;CA</title>
<path fill="none" stroke="black" d="M374.3,-381.2C348.46,-375.83 307.84,-365.88 275,-351 263.88,-345.96 262.95,-341.39 252,-336 230.92,-325.63 205.98,-316.89 186.28,-310.74"/>
<polygon fill="black" stroke="black" points="187.09,-307.33 176.5,-307.77 185.05,-314.03 187.09,-307.33"/>
<text text-anchor="middle" x="326.5" y="-339.8" font-family="Times,serif" font-size="14.00">TCA step n°12</text>
</g>
<!-- CT -->
<g id="node8" class="node">
<title>CT</title>
<ellipse fill="none" stroke="black" cx="400" cy="-246" rx="27" ry="18"/>
<text text-anchor="middle" x="400" y="-242.3" font-family="Times,serif" font-size="14.00">CT</text>
</g>
<!-- TC&#45;&gt;CT -->
<g id="edge10" class="edge">
<title>TC&#45;&gt;CT</title>
<path fill="none" stroke="black" d="M400,-368.96C400,-345.4 400,-302.64 400,-274.53"/>
<polygon fill="black" stroke="black" points="403.5,-274.18 400,-264.18 396.5,-274.18 403.5,-274.18"/>
<text text-anchor="middle" x="447" y="-339.8" font-family="Times,serif" font-size="14.00">TCT step n°9</text>
</g>
<!-- AT -->
<g id="node3" class="node">
<title>AT</title>
<ellipse fill="none" stroke="black" cx="292" cy="-192" rx="27" ry="18"/>
<text text-anchor="middle" x="292" y="-188.3" font-family="Times,serif" font-size="14.00">AT</text>
</g>
<!-- CA&#45;&gt;AT -->
<g id="edge2" class="edge">
<title>CA&#45;&gt;AT</title>
<path fill="none" stroke="black" d="M177.93,-294.72C199.01,-290.13 228.5,-281.07 249,-264 263.23,-252.15 260.4,-243.84 270,-228 272.07,-224.58 274.29,-220.98 276.48,-217.46"/>
<polygon fill="black" stroke="black" points="279.46,-219.29 281.81,-208.96 273.53,-215.57 279.46,-219.29"/>
<text text-anchor="middle" x="317" y="-242.3" font-family="Times,serif" font-size="14.00">CAT step n°1</text>
</g>
<!-- AG -->
<g id="node5" class="node">
<title>AG</title>
<ellipse fill="none" stroke="black" cx="27" cy="-192" rx="27" ry="18"/>
<text text-anchor="middle" x="27" y="-188.3" font-family="Times,serif" font-size="14.00">AG</text>
</g>
<!-- CA&#45;&gt;AG -->
<g id="edge6" class="edge">
<title>CA&#45;&gt;AG</title>
<path fill="none" stroke="black" d="M125.63,-295.56C91.87,-290.56 36.27,-280.07 24,-264 14.54,-251.61 15.15,-234.16 18.19,-219.66"/>
<polygon fill="black" stroke="black" points="21.64,-220.29 20.73,-209.73 14.86,-218.56 21.64,-220.29"/>
<text text-anchor="middle" x="72.5" y="-242.3" font-family="Times,serif" font-size="14.00">CAG step n°5</text>
</g>
<!-- AA -->
<g id="node9" class="node">
<title>AA</title>
<ellipse fill="none" stroke="black" cx="99" cy="-192" rx="27" ry="18"/>
<text text-anchor="middle" x="99" y="-188.3" font-family="Times,serif" font-size="14.00">AA</text>
</g>
<!-- CA&#45;&gt;AA -->
<g id="edge14" class="edge">
<title>CA&#45;&gt;AA</title>
<path fill="none" stroke="black" d="M147.02,-282.07C142.34,-267.31 134.63,-245.58 125,-228 122.87,-224.12 120.36,-220.18 117.75,-216.42"/>
<polygon fill="black" stroke="black" points="120.35,-214.05 111.61,-208.06 114.71,-218.19 120.35,-214.05"/>
<text text-anchor="middle" x="193" y="-242.3" font-family="Times,serif" font-size="14.00">CAA step n°13</text>
</g>
<!-- TT -->
<g id="node4" class="node">
<title>TT</title>
<ellipse fill="none" stroke="black" cx="443" cy="-105" rx="27" ry="18"/>
<text text-anchor="middle" x="443" y="-101.3" font-family="Times,serif" font-size="14.00">TT</text>
</g>
<!-- AT&#45;&gt;TT -->
<g id="edge3" class="edge">
<title>AT&#45;&gt;TT</title>
<path fill="none" stroke="black" d="M277.27,-176.33C268.42,-165.73 260.4,-151.5 269,-141 285.98,-120.27 360.22,-111.55 406.07,-108.09"/>
<polygon fill="black" stroke="black" points="406.49,-111.57 416.22,-107.38 406,-104.59 406.49,-111.57"/>
<text text-anchor="middle" x="316" y="-144.8" font-family="Times,serif" font-size="14.00">ATT step n°2</text>
</g>
<!-- TT&#45;&gt;TC -->
<g id="edge4" class="edge">
<title>TT&#45;&gt;TC</title>
<path fill="none" stroke="black" d="M458.19,-119.96C470.78,-132.64 487.76,-152.6 495,-174 507.61,-211.26 517.5,-318.74 495,-351 481.93,-369.75 457.63,-378.48 436.87,-382.53"/>
<polygon fill="black" stroke="black" points="436.02,-379.13 426.73,-384.21 437.17,-386.03 436.02,-379.13"/>
<text text-anchor="middle" x="555.5" y="-242.3" font-family="Times,serif" font-size="14.00">TTC step n°3</text>
</g>
<!-- TT&#45;&gt;TC -->
<g id="edge12" class="edge">
<title>TT&#45;&gt;TC</title>
<path fill="none" stroke="black" d="M466.18,-114.56C518.05,-135.19 636.51,-191.38 605,-264 582.47,-315.92 560.91,-322.51 512,-351 488.34,-364.78 458.65,-373.74 435.78,-379.14"/>
<polygon fill="black" stroke="black" points="434.8,-375.78 425.8,-381.38 436.33,-382.61 434.8,-375.78"/>
<text text-anchor="middle" x="662" y="-242.3" font-family="Times,serif" font-size="14.00">TTC step n°11</text>
</g>
<!-- GG -->
<g id="node6" class="node">
<title>GG</title>
<ellipse fill="none" stroke="black" cx="227" cy="-105" rx="27" ry="18"/>
<text text-anchor="middle" x="227" y="-101.3" font-family="Times,serif" font-size="14.00">GG</text>
</g>
<!-- AG&#45;&gt;GG -->
<g id="edge7" class="edge">
<title>AG&#45;&gt;GG</title>
<path fill="none" stroke="black" d="M48.24,-180.76C53.07,-178.49 58.2,-176.13 63,-174 108.33,-153.91 161.45,-132.22 194.66,-118.87"/>
<polygon fill="black" stroke="black" points="196.33,-121.98 204.3,-115.01 193.72,-115.48 196.33,-121.98"/>
<text text-anchor="middle" x="188.5" y="-144.8" font-family="Times,serif" font-size="14.00">AGG step n°6</text>
</g>
<!-- GT -->
<g id="node7" class="node">
<title>GT</title>
<ellipse fill="none" stroke="black" cx="592" cy="-18" rx="27" ry="18"/>
<text text-anchor="middle" x="592" y="-14.3" font-family="Times,serif" font-size="14.00">GT</text>
</g>
<!-- GG&#45;&gt;GT -->
<g id="edge8" class="edge">
<title>GG&#45;&gt;GT</title>
<path fill="none" stroke="black" d="M252.09,-98.16C315.64,-83.36 483.13,-44.35 556.6,-27.24"/>
<polygon fill="black" stroke="black" points="557.79,-30.56 566.74,-24.88 556.2,-23.74 557.79,-30.56"/>
<text text-anchor="middle" x="479.5" y="-57.8" font-family="Times,serif" font-size="14.00">GGT step n°7</text>
</g>
<!-- GT&#45;&gt;TC -->
<g id="edge9" class="edge">
<title>GT&#45;&gt;TC</title>
<path fill="none" stroke="black" d="M618.47,-21.61C662.5,-27.56 746,-46.44 746,-104 746,-301 746,-301 746,-301 746,-364.08 526.37,-380.6 437.08,-384.71"/>
<polygon fill="black" stroke="black" points="436.7,-381.22 426.86,-385.15 437,-388.22 436.7,-381.22"/>
<text text-anchor="middle" x="794" y="-188.3" font-family="Times,serif" font-size="14.00">GTC step n°8</text>
</g>
<!-- CT&#45;&gt;TT -->
<g id="edge11" class="edge">
<title>CT&#45;&gt;TT</title>
<path fill="none" stroke="black" d="M393.75,-228.22C389.25,-213.56 384.94,-191.89 391,-174 396.94,-156.45 409.43,-139.86 420.68,-127.47"/>
<polygon fill="black" stroke="black" points="423.46,-129.62 427.81,-119.96 418.39,-124.8 423.46,-129.62"/>
<text text-anchor="middle" x="443" y="-188.3" font-family="Times,serif" font-size="14.00">CTT step n°10</text>
</g>
<!-- AA&#45;&gt;AA -->
<g id="edge15" class="edge">
<title>AA&#45;&gt;AA</title>
<path fill="none" stroke="black" d="M123.53,-199.75C134.51,-200.49 144,-197.91 144,-192 144,-188.03 139.72,-185.56 133.57,-184.59"/>
<polygon fill="black" stroke="black" points="133.65,-181.09 123.53,-184.25 133.41,-188.09 133.65,-181.09"/>
<text text-anchor="middle" x="195.5" y="-188.3" font-family="Times,serif" font-size="14.00">AAA step n°14</text>
</g>
</g>
</svg>
